<svg viewBox="0 0 265 65" xmlns="http://www.w3.org/2000/svg"><g fill-rule="evenodd"><path d="M.563 27.293l11.26-.7c.24 1.83.74 3.24 1.5 4.2 1.22 1.55 2.96 2.34 5.23 2.34 1.69 0 3-.4 3.9-1.2a3.6 3.6 0 001.38-2.79c0-1-.43-1.9-1.3-2.7-.86-.79-2.88-1.53-6.05-2.24-5.2-1.17-8.9-2.74-11.12-4.7a9.46 9.46 0 01-3.35-7.46c0-1.98.57-3.85 1.72-5.62a11.33 11.33 0 015.15-4.17c2.3-1 5.44-1.52 9.44-1.52 4.9 0 8.64.92 11.2 2.77 2.58 1.84 4.1 4.77 4.6 8.8l-11.15.65c-.3-1.75-.92-3.03-1.87-3.83a5.94 5.94 0 00-3.94-1.2c-1.37 0-2.42.3-3.11.9a2.7 2.7 0 00-1.05 2.14c0 .62.29 1.17.85 1.66.54.51 1.87.98 3.96 1.42 5.18 1.13 8.89 2.28 11.12 3.43a11.7 11.7 0 014.9 4.3 10.96 10.96 0 011.53 5.72c0 2.48-.68 4.77-2.04 6.87a12.84 12.84 0 01-5.71 4.77c-2.44 1.08-5.51 1.62-9.23 1.62-6.52 0-11.04-1.27-13.55-3.8a15.04 15.04 0 01-4.27-9.66zm141.75-6.51c0-6.32 1.74-11.24 5.24-14.76 3.48-3.53 8.35-5.29 14.58-5.29 6.38 0 11.3 1.73 14.76 5.2 3.46 3.45 5.19 8.3 5.19 14.52 0 4.53-.75 8.23-2.26 11.13a16.29 16.29 0 01-6.55 6.76c-2.86 1.6-6.42 2.41-10.68 2.41-4.32 0-7.9-.7-10.75-2.08a16.3 16.3 0 01-6.9-6.6c-1.76-3-2.64-6.78-2.64-11.3zm11.85.03c0 3.9.72 6.71 2.16 8.41a7.34 7.34 0 005.9 2.56c2.54 0 4.53-.83 5.92-2.5 1.4-1.68 2.1-4.67 2.1-9 0-3.65-.73-6.3-2.2-7.98a7.45 7.45 0 00-5.93-2.53 7.2 7.2 0 00-5.77 2.56c-1.46 1.7-2.18 4.54-2.18 8.48z" fill="#009ee0"/><path d="M52.993 36.493h-7.61l-1.1 3.61h-6.85l8.18-21.92h7.35l8.15 21.92h-7.03zm-1.42-4.75l-2.38-7.88-2.38 7.88zm11.72-13.56h6.27l8.15 12.1v-12.1h6.34v21.92h-6.34l-8.1-12.04v12.04h-6.32zm23.7 0h20.44v5.42h-6.86v16.5h-6.71v-16.5h-6.86zm34.76 18.3h-7.6l-1.1 3.62h-6.86l8.18-21.92h7.35l8.15 21.92h-7.03zm-1.42-4.74l-2.38-7.87-2.4 7.88zm66.53-13.56h9.98c1.96 0 3.56.27 4.77.8a7.85 7.85 0 013 2.32 9.65 9.65 0 011.72 3.52c.36 1.33.53 2.75.53 4.24 0 2.35-.26 4.16-.8 5.45a8.97 8.97 0 01-2.2 3.25 7.2 7.2 0 01-3.02 1.74c-1.47.4-2.8.6-4 .6h-9.98zm6.7 4.96v11.97h1.66a7 7 0 003-.47 3.2 3.2 0 001.4-1.64c.34-.79.5-2.05.5-3.8 0-2.33-.37-3.9-1.12-4.78-.76-.85-2-1.28-3.75-1.28zm17.1-4.96h6.73v21.92h-6.74zm11.53 0h6.7v16.53h10.5v5.4h-17.2zm33.62 18.3h-7.6l-1.1 3.62h-6.85l8.18-21.92h7.35l8.14 21.92h-7.03zm-1.42-4.74l-2.37-7.88-2.38 7.88z" fill="#102a83"/></g><text style="white-space:pre" x="-.014" y="60.927" fill="#009ee0" font-family="Arial Narrow" font-size="20" letter-spacing=".3">MATERIAIS PARA CONSTRUÇÃO</text></svg>